<svg width="504" height="528" viewBox="0 0 504 528" fill="none" xmlns="http://www.w3.org/2000/svg">
<g clip-path="url(#clip0_386_4999)">
<rect width="504" height="528" fill="#210F0F"/>
<path fill-rule="evenodd" clip-rule="evenodd" d="M0 0H42V44H0V0ZM1 1H41V21H1V1ZM0 23H20V43H0V23ZM22 23H42V43H22V23Z" fill="#322F2F"/>
<path fill-rule="evenodd" clip-rule="evenodd" d="M42 0H84V44H42V0ZM43 1H83V21H43V1ZM42 23H62V43H42V23ZM64 23H84V43H64V23Z" fill="#322F2F"/>
<path fill-rule="evenodd" clip-rule="evenodd" d="M84 0H126V44H84V0ZM85 1H125V21H85V1ZM84 23H104V43H84V23ZM106 23H126V43H106V23Z" fill="#322F2F"/>
<path fill-rule="evenodd" clip-rule="evenodd" d="M126 0H168V44H126V0ZM127 1H167V21H127V1ZM126 23H146V43H126V23ZM148 23H168V43H148V23Z" fill="#322F2F"/>
<path fill-rule="evenodd" clip-rule="evenodd" d="M168 0H210V44H168V0ZM169 1H209V21H169V1ZM168 23H188V43H168V23ZM190 23H210V43H190V23Z" fill="#322F2F"/>
<path fill-rule="evenodd" clip-rule="evenodd" d="M210 0H252V44H210V0ZM211 1H251V21H211V1ZM210 23H230V43H210V23ZM232 23H252V43H232V23Z" fill="#322F2F"/>
<path fill-rule="evenodd" clip-rule="evenodd" d="M252 0H294V44H252V0ZM253 1H293V21H253V1ZM252 23H272V43H252V23ZM274 23H294V43H274V23Z" fill="#322F2F"/>
<path fill-rule="evenodd" clip-rule="evenodd" d="M294 0H336V44H294V0ZM295 1H335V21H295V1ZM294 23H314V43H294V23ZM316 23H336V43H316V23Z" fill="#322F2F"/>
<path fill-rule="evenodd" clip-rule="evenodd" d="M336 0H378V44H336V0ZM337 1H377V21H337V1ZM336 23H356V43H336V23ZM358 23H378V43H358V23Z" fill="#322F2F"/>
<path fill-rule="evenodd" clip-rule="evenodd" d="M378 0H420V44H378V0ZM379 1H419V21H379V1ZM378 23H398V43H378V23ZM400 23H420V43H400V23Z" fill="#322F2F"/>
<path fill-rule="evenodd" clip-rule="evenodd" d="M420 0H462V44H420V0ZM421 1H461V21H421V1ZM420 23H440V43H420V23ZM442 23H462V43H442V23Z" fill="#322F2F"/>
<path fill-rule="evenodd" clip-rule="evenodd" d="M462 0H504V44H462V0ZM463 1H503V21H463V1ZM462 23H482V43H462V23ZM484 23H504V43H484V23Z" fill="#322F2F"/>
<path fill-rule="evenodd" clip-rule="evenodd" d="M0 44H42V88H0V44ZM1 45H41V65H1V45ZM0 67H20V87H0V67ZM22 67H42V87H22V67Z" fill="#322F2F"/>
<path fill-rule="evenodd" clip-rule="evenodd" d="M42 44H84V88H42V44ZM43 45H83V65H43V45ZM42 67H62V87H42V67ZM64 67H84V87H64V67Z" fill="#322F2F"/>
<path fill-rule="evenodd" clip-rule="evenodd" d="M84 44H126V88H84V44ZM85 45H125V65H85V45ZM84 67H104V87H84V67ZM106 67H126V87H106V67Z" fill="#322F2F"/>
<path fill-rule="evenodd" clip-rule="evenodd" d="M126 44H168V88H126V44ZM127 45H167V65H127V45ZM126 67H146V87H126V67ZM148 67H168V87H148V67Z" fill="#322F2F"/>
<path fill-rule="evenodd" clip-rule="evenodd" d="M168 44H210V88H168V44ZM169 45H209V65H169V45ZM168 67H188V87H168V67ZM190 67H210V87H190V67Z" fill="#322F2F"/>
<path fill-rule="evenodd" clip-rule="evenodd" d="M210 44H252V88H210V44ZM211 45H251V65H211V45ZM210 67H230V87H210V67ZM232 67H252V87H232V67Z" fill="#322F2F"/>
<path fill-rule="evenodd" clip-rule="evenodd" d="M252 44H294V88H252V44ZM253 45H293V65H253V45ZM252 67H272V87H252V67ZM274 67H294V87H274V67Z" fill="#322F2F"/>
<path fill-rule="evenodd" clip-rule="evenodd" d="M294 44H336V88H294V44ZM295 45H335V65H295V45ZM294 67H314V87H294V67ZM316 67H336V87H316V67Z" fill="#322F2F"/>
<path fill-rule="evenodd" clip-rule="evenodd" d="M336 44H378V88H336V44ZM337 45H377V65H337V45ZM336 67H356V87H336V67ZM358 67H378V87H358V67Z" fill="#322F2F"/>
<path fill-rule="evenodd" clip-rule="evenodd" d="M378 44H420V88H378V44ZM379 45H419V65H379V45ZM378 67H398V87H378V67ZM400 67H420V87H400V67Z" fill="#322F2F"/>
<path fill-rule="evenodd" clip-rule="evenodd" d="M420 44H462V88H420V44ZM421 45H461V65H421V45ZM420 67H440V87H420V67ZM442 67H462V87H442V67Z" fill="#322F2F"/>
<path fill-rule="evenodd" clip-rule="evenodd" d="M462 44H504V88H462V44ZM463 45H503V65H463V45ZM462 67H482V87H462V67ZM484 67H504V87H484V67Z" fill="#322F2F"/>
<path fill-rule="evenodd" clip-rule="evenodd" d="M0 88H42V132H0V88ZM1 89H41V109H1V89ZM0 111H20V131H0V111ZM22 111H42V131H22V111Z" fill="#322F2F"/>
<path fill-rule="evenodd" clip-rule="evenodd" d="M42 88H84V132H42V88ZM43 89H83V109H43V89ZM42 111H62V131H42V111ZM64 111H84V131H64V111Z" fill="#322F2F"/>
<path fill-rule="evenodd" clip-rule="evenodd" d="M84 88H126V132H84V88ZM85 89H125V109H85V89ZM84 111H104V131H84V111ZM106 111H126V131H106V111Z" fill="#322F2F"/>
<path fill-rule="evenodd" clip-rule="evenodd" d="M126 88H168V132H126V88ZM127 89H167V109H127V89ZM126 111H146V131H126V111ZM148 111H168V131H148V111Z" fill="#322F2F"/>
<path fill-rule="evenodd" clip-rule="evenodd" d="M168 88H210V132H168V88ZM169 89H209V109H169V89ZM168 111H188V131H168V111ZM190 111H210V131H190V111Z" fill="#322F2F"/>
<path fill-rule="evenodd" clip-rule="evenodd" d="M210 88H252V132H210V88ZM211 89H251V109H211V89ZM210 111H230V131H210V111ZM232 111H252V131H232V111Z" fill="#322F2F"/>
<path fill-rule="evenodd" clip-rule="evenodd" d="M252 88H294V132H252V88ZM253 89H293V109H253V89ZM252 111H272V131H252V111ZM274 111H294V131H274V111Z" fill="#322F2F"/>
<path fill-rule="evenodd" clip-rule="evenodd" d="M294 88H336V132H294V88ZM295 89H335V109H295V89ZM294 111H314V131H294V111ZM316 111H336V131H316V111Z" fill="#322F2F"/>
<path fill-rule="evenodd" clip-rule="evenodd" d="M336 88H378V132H336V88ZM337 89H377V109H337V89ZM336 111H356V131H336V111ZM358 111H378V131H358V111Z" fill="#322F2F"/>
<path fill-rule="evenodd" clip-rule="evenodd" d="M378 88H420V132H378V88ZM379 89H419V109H379V89ZM378 111H398V131H378V111ZM400 111H420V131H400V111Z" fill="#322F2F"/>
<path fill-rule="evenodd" clip-rule="evenodd" d="M420 88H462V132H420V88ZM421 89H461V109H421V89ZM420 111H440V131H420V111ZM442 111H462V131H442V111Z" fill="#322F2F"/>
<path fill-rule="evenodd" clip-rule="evenodd" d="M462 88H504V132H462V88ZM463 89H503V109H463V89ZM462 111H482V131H462V111ZM484 111H504V131H484V111Z" fill="#322F2F"/>
<path fill-rule="evenodd" clip-rule="evenodd" d="M0 132H42V176H0V132ZM1 133H41V153H1V133ZM0 155H20V175H0V155ZM22 155H42V175H22V155Z" fill="#322F2F"/>
<path fill-rule="evenodd" clip-rule="evenodd" d="M42 132H84V176H42V132ZM43 133H83V153H43V133ZM42 155H62V175H42V155ZM64 155H84V175H64V155Z" fill="#322F2F"/>
<path fill-rule="evenodd" clip-rule="evenodd" d="M84 132H126V176H84V132ZM85 133H125V153H85V133ZM84 155H104V175H84V155ZM106 155H126V175H106V155Z" fill="#322F2F"/>
<path fill-rule="evenodd" clip-rule="evenodd" d="M126 132H168V176H126V132ZM127 133H167V153H127V133ZM126 155H146V175H126V155ZM148 155H168V175H148V155Z" fill="#322F2F"/>
<path fill-rule="evenodd" clip-rule="evenodd" d="M168 132H210V176H168V132ZM169 133H209V153H169V133ZM168 155H188V175H168V155ZM190 155H210V175H190V155Z" fill="#322F2F"/>
<path fill-rule="evenodd" clip-rule="evenodd" d="M210 132H252V176H210V132ZM211 133H251V153H211V133ZM210 155H230V175H210V155ZM232 155H252V175H232V155Z" fill="#322F2F"/>
<path fill-rule="evenodd" clip-rule="evenodd" d="M252 132H294V176H252V132ZM253 133H293V153H253V133ZM252 155H272V175H252V155ZM274 155H294V175H274V155Z" fill="#322F2F"/>
<path fill-rule="evenodd" clip-rule="evenodd" d="M294 132H336V176H294V132ZM295 133H335V153H295V133ZM294 155H314V175H294V155ZM316 155H336V175H316V155Z" fill="#322F2F"/>
<path fill-rule="evenodd" clip-rule="evenodd" d="M336 132H378V176H336V132ZM337 133H377V153H337V133ZM336 155H356V175H336V155ZM358 155H378V175H358V155Z" fill="#322F2F"/>
<path fill-rule="evenodd" clip-rule="evenodd" d="M378 132H420V176H378V132ZM379 133H419V153H379V133ZM378 155H398V175H378V155ZM400 155H420V175H400V155Z" fill="#322F2F"/>
<path fill-rule="evenodd" clip-rule="evenodd" d="M420 132H462V176H420V132ZM421 133H461V153H421V133ZM420 155H440V175H420V155ZM442 155H462V175H442V155Z" fill="#322F2F"/>
<path fill-rule="evenodd" clip-rule="evenodd" d="M462 132H504V176H462V132ZM463 133H503V153H463V133ZM462 155H482V175H462V155ZM484 155H504V175H484V155Z" fill="#322F2F"/>
<path fill-rule="evenodd" clip-rule="evenodd" d="M0 176H42V220H0V176ZM1 177H41V197H1V177ZM0 199H20V219H0V199ZM22 199H42V219H22V199Z" fill="#322F2F"/>
<path fill-rule="evenodd" clip-rule="evenodd" d="M42 176H84V220H42V176ZM43 177H83V197H43V177ZM42 199H62V219H42V199ZM64 199H84V219H64V199Z" fill="#322F2F"/>
<path fill-rule="evenodd" clip-rule="evenodd" d="M84 176H126V220H84V176ZM85 177H125V197H85V177ZM84 199H104V219H84V199ZM106 199H126V219H106V199Z" fill="#322F2F"/>
<path fill-rule="evenodd" clip-rule="evenodd" d="M126 176H168V220H126V176ZM127 177H167V197H127V177ZM126 199H146V219H126V199ZM148 199H168V219H148V199Z" fill="#322F2F"/>
<path fill-rule="evenodd" clip-rule="evenodd" d="M168 176H210V220H168V176ZM169 177H209V197H169V177ZM168 199H188V219H168V199ZM190 199H210V219H190V199Z" fill="#322F2F"/>
<path fill-rule="evenodd" clip-rule="evenodd" d="M210 176H252V220H210V176ZM211 177H251V197H211V177ZM210 199H230V219H210V199ZM232 199H252V219H232V199Z" fill="#322F2F"/>
<path fill-rule="evenodd" clip-rule="evenodd" d="M252 176H294V220H252V176ZM253 177H293V197H253V177ZM252 199H272V219H252V199ZM274 199H294V219H274V199Z" fill="#322F2F"/>
<path fill-rule="evenodd" clip-rule="evenodd" d="M294 176H336V220H294V176ZM295 177H335V197H295V177ZM294 199H314V219H294V199ZM316 199H336V219H316V199Z" fill="#322F2F"/>
<path fill-rule="evenodd" clip-rule="evenodd" d="M336 176H378V220H336V176ZM337 177H377V197H337V177ZM336 199H356V219H336V199ZM358 199H378V219H358V199Z" fill="#322F2F"/>
<path fill-rule="evenodd" clip-rule="evenodd" d="M378 176H420V220H378V176ZM379 177H419V197H379V177ZM378 199H398V219H378V199ZM400 199H420V219H400V199Z" fill="#322F2F"/>
<path fill-rule="evenodd" clip-rule="evenodd" d="M420 176H462V220H420V176ZM421 177H461V197H421V177ZM420 199H440V219H420V199ZM442 199H462V219H442V199Z" fill="#322F2F"/>
<path fill-rule="evenodd" clip-rule="evenodd" d="M462 176H504V220H462V176ZM463 177H503V197H463V177ZM462 199H482V219H462V199ZM484 199H504V219H484V199Z" fill="#322F2F"/>
<path fill-rule="evenodd" clip-rule="evenodd" d="M0 220H42V264H0V220ZM1 221H41V241H1V221ZM0 243H20V263H0V243ZM22 243H42V263H22V243Z" fill="#322F2F"/>
<path fill-rule="evenodd" clip-rule="evenodd" d="M42 220H84V264H42V220ZM43 221H83V241H43V221ZM42 243H62V263H42V243ZM64 243H84V263H64V243Z" fill="#322F2F"/>
<path fill-rule="evenodd" clip-rule="evenodd" d="M84 220H126V264H84V220ZM85 221H125V241H85V221ZM84 243H104V263H84V243ZM106 243H126V263H106V243Z" fill="#322F2F"/>
<path fill-rule="evenodd" clip-rule="evenodd" d="M126 220H168V264H126V220ZM127 221H167V241H127V221ZM126 243H146V263H126V243ZM148 243H168V263H148V243Z" fill="#322F2F"/>
<path fill-rule="evenodd" clip-rule="evenodd" d="M168 220H210V264H168V220ZM169 221H209V241H169V221ZM168 243H188V263H168V243ZM190 243H210V263H190V243Z" fill="#322F2F"/>
<path fill-rule="evenodd" clip-rule="evenodd" d="M210 220H252V264H210V220ZM211 221H251V241H211V221ZM210 243H230V263H210V243ZM232 243H252V263H232V243Z" fill="#322F2F"/>
<path fill-rule="evenodd" clip-rule="evenodd" d="M252 220H294V264H252V220ZM253 221H293V241H253V221ZM252 243H272V263H252V243ZM274 243H294V263H274V243Z" fill="#322F2F"/>
<path fill-rule="evenodd" clip-rule="evenodd" d="M294 220H336V264H294V220ZM295 221H335V241H295V221ZM294 243H314V263H294V243ZM316 243H336V263H316V243Z" fill="#322F2F"/>
<path fill-rule="evenodd" clip-rule="evenodd" d="M336 220H378V264H336V220ZM337 221H377V241H337V221ZM336 243H356V263H336V243ZM358 243H378V263H358V243Z" fill="#322F2F"/>
<path fill-rule="evenodd" clip-rule="evenodd" d="M378 220H420V264H378V220ZM379 221H419V241H379V221ZM378 243H398V263H378V243ZM400 243H420V263H400V243Z" fill="#322F2F"/>
<path fill-rule="evenodd" clip-rule="evenodd" d="M420 220H462V264H420V220ZM421 221H461V241H421V221ZM420 243H440V263H420V243ZM442 243H462V263H442V243Z" fill="#322F2F"/>
<path fill-rule="evenodd" clip-rule="evenodd" d="M462 220H504V264H462V220ZM463 221H503V241H463V221ZM462 243H482V263H462V243ZM484 243H504V263H484V243Z" fill="#322F2F"/>
<path fill-rule="evenodd" clip-rule="evenodd" d="M0 264H42V308H0V264ZM1 265H41V285H1V265ZM0 287H20V307H0V287ZM22 287H42V307H22V287Z" fill="#322F2F"/>
<path fill-rule="evenodd" clip-rule="evenodd" d="M42 264H84V308H42V264ZM43 265H83V285H43V265ZM42 287H62V307H42V287ZM64 287H84V307H64V287Z" fill="#322F2F"/>
<path fill-rule="evenodd" clip-rule="evenodd" d="M84 264H126V308H84V264ZM85 265H125V285H85V265ZM84 287H104V307H84V287ZM106 287H126V307H106V287Z" fill="#322F2F"/>
<path fill-rule="evenodd" clip-rule="evenodd" d="M126 264H168V308H126V264ZM127 265H167V285H127V265ZM126 287H146V307H126V287ZM148 287H168V307H148V287Z" fill="#322F2F"/>
<path fill-rule="evenodd" clip-rule="evenodd" d="M168 264H210V308H168V264ZM169 265H209V285H169V265ZM168 287H188V307H168V287ZM190 287H210V307H190V287Z" fill="#322F2F"/>
<path fill-rule="evenodd" clip-rule="evenodd" d="M210 264H252V308H210V264ZM211 265H251V285H211V265ZM210 287H230V307H210V287ZM232 287H252V307H232V287Z" fill="#322F2F"/>
<path fill-rule="evenodd" clip-rule="evenodd" d="M252 264H294V308H252V264ZM253 265H293V285H253V265ZM252 287H272V307H252V287ZM274 287H294V307H274V287Z" fill="#322F2F"/>
<path fill-rule="evenodd" clip-rule="evenodd" d="M294 264H336V308H294V264ZM295 265H335V285H295V265ZM294 287H314V307H294V287ZM316 287H336V307H316V287Z" fill="#322F2F"/>
<path fill-rule="evenodd" clip-rule="evenodd" d="M336 264H378V308H336V264ZM337 265H377V285H337V265ZM336 287H356V307H336V287ZM358 287H378V307H358V287Z" fill="#322F2F"/>
<path fill-rule="evenodd" clip-rule="evenodd" d="M378 264H420V308H378V264ZM379 265H419V285H379V265ZM378 287H398V307H378V287ZM400 287H420V307H400V287Z" fill="#322F2F"/>
<path fill-rule="evenodd" clip-rule="evenodd" d="M420 264H462V308H420V264ZM421 265H461V285H421V265ZM420 287H440V307H420V287ZM442 287H462V307H442V287Z" fill="#322F2F"/>
<path fill-rule="evenodd" clip-rule="evenodd" d="M462 264H504V308H462V264ZM463 265H503V285H463V265ZM462 287H482V307H462V287ZM484 287H504V307H484V287Z" fill="#322F2F"/>
<path fill-rule="evenodd" clip-rule="evenodd" d="M0 308H42V352H0V308ZM1 309H41V329H1V309ZM0 331H20V351H0V331ZM22 331H42V351H22V331Z" fill="#322F2F"/>
<path fill-rule="evenodd" clip-rule="evenodd" d="M42 308H84V352H42V308ZM43 309H83V329H43V309ZM42 331H62V351H42V331ZM64 331H84V351H64V331Z" fill="#322F2F"/>
<path fill-rule="evenodd" clip-rule="evenodd" d="M84 308H126V352H84V308ZM85 309H125V329H85V309ZM84 331H104V351H84V331ZM106 331H126V351H106V331Z" fill="#322F2F"/>
<path fill-rule="evenodd" clip-rule="evenodd" d="M126 308H168V352H126V308ZM127 309H167V329H127V309ZM126 331H146V351H126V331ZM148 331H168V351H148V331Z" fill="#322F2F"/>
<path fill-rule="evenodd" clip-rule="evenodd" d="M168 308H210V352H168V308ZM169 309H209V329H169V309ZM168 331H188V351H168V331ZM190 331H210V351H190V331Z" fill="#322F2F"/>
<path fill-rule="evenodd" clip-rule="evenodd" d="M210 308H252V352H210V308ZM211 309H251V329H211V309ZM210 331H230V351H210V331ZM232 331H252V351H232V331Z" fill="#322F2F"/>
<path fill-rule="evenodd" clip-rule="evenodd" d="M252 308H294V352H252V308ZM253 309H293V329H253V309ZM252 331H272V351H252V331ZM274 331H294V351H274V331Z" fill="#322F2F"/>
<path fill-rule="evenodd" clip-rule="evenodd" d="M294 308H336V352H294V308ZM295 309H335V329H295V309ZM294 331H314V351H294V331ZM316 331H336V351H316V331Z" fill="#322F2F"/>
<path fill-rule="evenodd" clip-rule="evenodd" d="M336 308H378V352H336V308ZM337 309H377V329H337V309ZM336 331H356V351H336V331ZM358 331H378V351H358V331Z" fill="#322F2F"/>
<path fill-rule="evenodd" clip-rule="evenodd" d="M378 308H420V352H378V308ZM379 309H419V329H379V309ZM378 331H398V351H378V331ZM400 331H420V351H400V331Z" fill="#322F2F"/>
<path fill-rule="evenodd" clip-rule="evenodd" d="M420 308H462V352H420V308ZM421 309H461V329H421V309ZM420 331H440V351H420V331ZM442 331H462V351H442V331Z" fill="#322F2F"/>
<path fill-rule="evenodd" clip-rule="evenodd" d="M462 308H504V352H462V308ZM463 309H503V329H463V309ZM462 331H482V351H462V331ZM484 331H504V351H484V331Z" fill="#322F2F"/>
<path fill-rule="evenodd" clip-rule="evenodd" d="M0 352H42V396H0V352ZM1 353H41V373H1V353ZM0 375H20V395H0V375ZM22 375H42V395H22V375Z" fill="#322F2F"/>
<path fill-rule="evenodd" clip-rule="evenodd" d="M42 352H84V396H42V352ZM43 353H83V373H43V353ZM42 375H62V395H42V375ZM64 375H84V395H64V375Z" fill="#322F2F"/>
<path fill-rule="evenodd" clip-rule="evenodd" d="M84 352H126V396H84V352ZM85 353H125V373H85V353ZM84 375H104V395H84V375ZM106 375H126V395H106V375Z" fill="#322F2F"/>
<path fill-rule="evenodd" clip-rule="evenodd" d="M126 352H168V396H126V352ZM127 353H167V373H127V353ZM126 375H146V395H126V375ZM148 375H168V395H148V375Z" fill="#322F2F"/>
<path fill-rule="evenodd" clip-rule="evenodd" d="M168 352H210V396H168V352ZM169 353H209V373H169V353ZM168 375H188V395H168V375ZM190 375H210V395H190V375Z" fill="#322F2F"/>
<path fill-rule="evenodd" clip-rule="evenodd" d="M210 352H252V396H210V352ZM211 353H251V373H211V353ZM210 375H230V395H210V375ZM232 375H252V395H232V375Z" fill="#322F2F"/>
<path fill-rule="evenodd" clip-rule="evenodd" d="M252 352H294V396H252V352ZM253 353H293V373H253V353ZM252 375H272V395H252V375ZM274 375H294V395H274V375Z" fill="#322F2F"/>
<path fill-rule="evenodd" clip-rule="evenodd" d="M294 352H336V396H294V352ZM295 353H335V373H295V353ZM294 375H314V395H294V375ZM316 375H336V395H316V375Z" fill="#322F2F"/>
<path fill-rule="evenodd" clip-rule="evenodd" d="M336 352H378V396H336V352ZM337 353H377V373H337V353ZM336 375H356V395H336V375ZM358 375H378V395H358V375Z" fill="#322F2F"/>
<path fill-rule="evenodd" clip-rule="evenodd" d="M378 352H420V396H378V352ZM379 353H419V373H379V353ZM378 375H398V395H378V375ZM400 375H420V395H400V375Z" fill="#322F2F"/>
<path fill-rule="evenodd" clip-rule="evenodd" d="M420 352H462V396H420V352ZM421 353H461V373H421V353ZM420 375H440V395H420V375ZM442 375H462V395H442V375Z" fill="#322F2F"/>
<path fill-rule="evenodd" clip-rule="evenodd" d="M462 352H504V396H462V352ZM463 353H503V373H463V353ZM462 375H482V395H462V375ZM484 375H504V395H484V375Z" fill="#322F2F"/>
<path fill-rule="evenodd" clip-rule="evenodd" d="M0 396H42V440H0V396ZM1 397H41V417H1V397ZM0 419H20V439H0V419ZM22 419H42V439H22V419Z" fill="#322F2F"/>
<path fill-rule="evenodd" clip-rule="evenodd" d="M42 396H84V440H42V396ZM43 397H83V417H43V397ZM42 419H62V439H42V419ZM64 419H84V439H64V419Z" fill="#322F2F"/>
<path fill-rule="evenodd" clip-rule="evenodd" d="M84 396H126V440H84V396ZM85 397H125V417H85V397ZM84 419H104V439H84V419ZM106 419H126V439H106V419Z" fill="#322F2F"/>
<path fill-rule="evenodd" clip-rule="evenodd" d="M126 396H168V440H126V396ZM127 397H167V417H127V397ZM126 419H146V439H126V419ZM148 419H168V439H148V419Z" fill="#322F2F"/>
<path fill-rule="evenodd" clip-rule="evenodd" d="M168 396H210V440H168V396ZM169 397H209V417H169V397ZM168 419H188V439H168V419ZM190 419H210V439H190V419Z" fill="#322F2F"/>
<path fill-rule="evenodd" clip-rule="evenodd" d="M210 396H252V440H210V396ZM211 397H251V417H211V397ZM210 419H230V439H210V419ZM232 419H252V439H232V419Z" fill="#322F2F"/>
<path fill-rule="evenodd" clip-rule="evenodd" d="M252 396H294V440H252V396ZM253 397H293V417H253V397ZM252 419H272V439H252V419ZM274 419H294V439H274V419Z" fill="#322F2F"/>
<path fill-rule="evenodd" clip-rule="evenodd" d="M294 396H336V440H294V396ZM295 397H335V417H295V397ZM294 419H314V439H294V419ZM316 419H336V439H316V419Z" fill="#322F2F"/>
<path fill-rule="evenodd" clip-rule="evenodd" d="M336 396H378V440H336V396ZM337 397H377V417H337V397ZM336 419H356V439H336V419ZM358 419H378V439H358V419Z" fill="#322F2F"/>
<path fill-rule="evenodd" clip-rule="evenodd" d="M378 396H420V440H378V396ZM379 397H419V417H379V397ZM378 419H398V439H378V419ZM400 419H420V439H400V419Z" fill="#322F2F"/>
<path fill-rule="evenodd" clip-rule="evenodd" d="M420 396H462V440H420V396ZM421 397H461V417H421V397ZM420 419H440V439H420V419ZM442 419H462V439H442V419Z" fill="#322F2F"/>
<path fill-rule="evenodd" clip-rule="evenodd" d="M462 396H504V440H462V396ZM463 397H503V417H463V397ZM462 419H482V439H462V419ZM484 419H504V439H484V419Z" fill="#322F2F"/>
<path fill-rule="evenodd" clip-rule="evenodd" d="M0 440H42V484H0V440ZM1 441H41V461H1V441ZM0 463H20V483H0V463ZM22 463H42V483H22V463Z" fill="#322F2F"/>
<path fill-rule="evenodd" clip-rule="evenodd" d="M42 440H84V484H42V440ZM43 441H83V461H43V441ZM42 463H62V483H42V463ZM64 463H84V483H64V463Z" fill="#322F2F"/>
<path fill-rule="evenodd" clip-rule="evenodd" d="M84 440H126V484H84V440ZM85 441H125V461H85V441ZM84 463H104V483H84V463ZM106 463H126V483H106V463Z" fill="#322F2F"/>
<path fill-rule="evenodd" clip-rule="evenodd" d="M126 440H168V484H126V440ZM127 441H167V461H127V441ZM126 463H146V483H126V463ZM148 463H168V483H148V463Z" fill="#322F2F"/>
<path fill-rule="evenodd" clip-rule="evenodd" d="M168 440H210V484H168V440ZM169 441H209V461H169V441ZM168 463H188V483H168V463ZM190 463H210V483H190V463Z" fill="#322F2F"/>
<path fill-rule="evenodd" clip-rule="evenodd" d="M210 440H252V484H210V440ZM211 441H251V461H211V441ZM210 463H230V483H210V463ZM232 463H252V483H232V463Z" fill="#322F2F"/>
<path fill-rule="evenodd" clip-rule="evenodd" d="M252 440H294V484H252V440ZM253 441H293V461H253V441ZM252 463H272V483H252V463ZM274 463H294V483H274V463Z" fill="#322F2F"/>
<path fill-rule="evenodd" clip-rule="evenodd" d="M294 440H336V484H294V440ZM295 441H335V461H295V441ZM294 463H314V483H294V463ZM316 463H336V483H316V463Z" fill="#322F2F"/>
<path fill-rule="evenodd" clip-rule="evenodd" d="M336 440H378V484H336V440ZM337 441H377V461H337V441ZM336 463H356V483H336V463ZM358 463H378V483H358V463Z" fill="#322F2F"/>
<path fill-rule="evenodd" clip-rule="evenodd" d="M378 440H420V484H378V440ZM379 441H419V461H379V441ZM378 463H398V483H378V463ZM400 463H420V483H400V463Z" fill="#322F2F"/>
<path fill-rule="evenodd" clip-rule="evenodd" d="M420 440H462V484H420V440ZM421 441H461V461H421V441ZM420 463H440V483H420V463ZM442 463H462V483H442V463Z" fill="#322F2F"/>
<path fill-rule="evenodd" clip-rule="evenodd" d="M462 440H504V484H462V440ZM463 441H503V461H463V441ZM462 463H482V483H462V463ZM484 463H504V483H484V463Z" fill="#322F2F"/>
<path fill-rule="evenodd" clip-rule="evenodd" d="M0 484H42V528H0V484ZM1 485H41V505H1V485ZM0 507H20V527H0V507ZM22 507H42V527H22V507Z" fill="#322F2F"/>
<path fill-rule="evenodd" clip-rule="evenodd" d="M42 484H84V528H42V484ZM43 485H83V505H43V485ZM42 507H62V527H42V507ZM64 507H84V527H64V507Z" fill="#322F2F"/>
<path fill-rule="evenodd" clip-rule="evenodd" d="M84 484H126V528H84V484ZM85 485H125V505H85V485ZM84 507H104V527H84V507ZM106 507H126V527H106V507Z" fill="#322F2F"/>
<path fill-rule="evenodd" clip-rule="evenodd" d="M126 484H168V528H126V484ZM127 485H167V505H127V485ZM126 507H146V527H126V507ZM148 507H168V527H148V507Z" fill="#322F2F"/>
<path fill-rule="evenodd" clip-rule="evenodd" d="M168 484H210V528H168V484ZM169 485H209V505H169V485ZM168 507H188V527H168V507ZM190 507H210V527H190V507Z" fill="#322F2F"/>
<path fill-rule="evenodd" clip-rule="evenodd" d="M210 484H252V528H210V484ZM211 485H251V505H211V485ZM210 507H230V527H210V507ZM232 507H252V527H232V507Z" fill="#322F2F"/>
<path fill-rule="evenodd" clip-rule="evenodd" d="M252 484H294V528H252V484ZM253 485H293V505H253V485ZM252 507H272V527H252V507ZM274 507H294V527H274V507Z" fill="#322F2F"/>
<path fill-rule="evenodd" clip-rule="evenodd" d="M294 484H336V528H294V484ZM295 485H335V505H295V485ZM294 507H314V527H294V507ZM316 507H336V527H316V507Z" fill="#322F2F"/>
<path fill-rule="evenodd" clip-rule="evenodd" d="M336 484H378V528H336V484ZM337 485H377V505H337V485ZM336 507H356V527H336V507ZM358 507H378V527H358V507Z" fill="#322F2F"/>
<path fill-rule="evenodd" clip-rule="evenodd" d="M378 484H420V528H378V484ZM379 485H419V505H379V485ZM378 507H398V527H378V507ZM400 507H420V527H400V507Z" fill="#322F2F"/>
<path fill-rule="evenodd" clip-rule="evenodd" d="M420 484H462V528H420V484ZM421 485H461V505H421V485ZM420 507H440V527H420V507ZM442 507H462V527H442V507Z" fill="#322F2F"/>
<path fill-rule="evenodd" clip-rule="evenodd" d="M462 484H504V528H462V484ZM463 485H503V505H463V485ZM462 507H482V527H462V507ZM484 507H504V527H484V507Z" fill="#322F2F"/>
</g>
<defs>
<clipPath id="clip0_386_4999">
<rect width="504" height="528" fill="white"/>
</clipPath>
</defs>
</svg>
